<svg viewBox="0 0 349 455" xmlns="http://www.w3.org/2000/svg">
<path fill-rule="evenodd" clip-rule="evenodd" d="M5 407.752V9L207.358 123.743L344 46.4339V446L140.44 330.443L5 407.752ZM325.567 130.253V77.3575L159.674 171.756L206.957 198.611L325.567 130.253ZM22.6312 93.6331V39.9236L187.723 134.322L141.241 161.177L22.6312 93.6331ZM22.6312 115.605V166.06L77.5284 197.797L122.007 172.163L22.6312 115.605ZM187.723 209.597L143.645 235.231L95.961 208.376L140.84 182.742L187.723 209.597ZM22.6312 228.721L58.695 207.969L22.6312 187.218V228.721ZM22.6312 303.995V249.472L77.5284 218.955L124.411 245.81L22.6312 303.995ZM22.6312 325.154V376.829L188.124 282.023L143.645 256.389L22.6312 325.154ZM207.358 271.851L251.837 245.81L206.957 219.769L162.078 245.81L207.358 271.851ZM225.39 209.19L325.567 151.412V205.121L270.67 236.045L225.39 209.19ZM325.567 225.466V266.968L289.504 245.81L325.567 225.466ZM225.39 282.43L325.567 340.615V287.72L270.67 256.389L225.39 282.43ZM159.273 319.864L206.957 293.009L325.567 360.553V414.669L159.273 319.864Z"/>
<path fill-rule="evenodd" clip-rule="evenodd" d="M0 0.416977L207.361 117.997L349 37.8602V454.588L140.446 336.197L0 416.364V0.416977ZM140.44 330.443L344 446V46.4339L207.358 123.743L10 21L5 407.752L140.44 330.443ZM27.6312 90.7266L141.223 155.413L177.69 134.345L27.6312 48.5423V90.7266ZM187.723 134.322L141.241 161.177L22.6312 93.6331V39.9236L187.723 134.322ZM27.6312 163.175L77.5323 192.024L111.946 172.19L27.6312 124.204V163.175ZM22.6312 115.605V166.06L77.5284 197.797L122.007 172.163L22.6312 115.605ZM22.6312 228.721L58.695 207.969L22.6312 187.218V228.721ZM27.6312 195.864V220.075L48.6697 207.969L27.6312 195.864ZM22.6312 303.995L124.411 245.81L77.5284 218.955L22.6312 249.472V303.995ZM77.4915 224.696L27.6312 252.413V295.378L114.344 245.806L77.4915 224.696ZM22.6312 376.829L188.124 282.023L143.645 256.389L22.6312 325.154V376.829ZM143.628 262.15L27.6312 328.063V368.202L178.088 282.01L143.628 262.15ZM159.273 319.864L325.567 414.669V360.553L206.957 293.009L159.273 319.864ZM169.415 319.891L320.567 406.063V363.46L206.944 298.755L169.415 319.891ZM325.567 340.615V287.72L270.67 256.389L225.39 282.43L325.567 340.615ZM320.567 331.929V290.623L270.68 262.152L235.382 282.452L320.567 331.929ZM325.567 225.466L289.504 245.81L325.567 266.968V225.466ZM320.567 258.238V234.027L299.529 245.895L320.567 258.238ZM251.837 245.81L206.957 219.769L162.078 245.81L207.358 271.851L251.837 245.81ZM241.908 245.829L207.336 266.07L172.074 245.791L206.957 225.55L241.908 245.829ZM187.723 209.597L140.84 182.742L95.961 208.376L143.645 235.231L187.723 209.597ZM177.721 209.63L140.837 188.502L106.096 208.345L143.605 229.47L177.721 209.63ZM325.567 151.412V205.121L270.67 236.045L225.39 209.19L325.567 151.412ZM235.293 209.25L320.567 160.067V202.199L270.735 230.27L235.293 209.25ZM320.567 85.9555L169.791 171.752L206.939 192.85L320.567 127.364V85.9555ZM159.674 171.756L206.957 198.611L325.567 130.253V77.3575L159.674 171.756Z"/>
</svg>
